<svg xmlns="http://www.w3.org/2000/svg" xmlns:xlink="http://www.w3.org/1999/xlink" viewBox="2216 -2661 30 30">
  <defs>
    <style>
      .cls-1 {
        clip-path: url(#clip-geotag);
      }

      .cls-2 {
        fill: #f28200;
      }

      .cls-3 {
        fill: none;
      }

      .cls-4 {
        fill: transparent;
      }
    </style>
    <clipPath id="clip-geotag">
      <rect x="2216" y="-2661" width="30" height="30"/>
    </clipPath>
  </defs>
  <g id="geotag" class="cls-1">
    <rect class="cls-4" x="2216" y="-2661" width="30" height="30"/>
    <g id="ic_location_on_black_24px" transform="translate(2217 -2656)">
      <g id="Group_15" data-name="Group 15" transform="translate(4.335 1.734)">
        <path id="Path_8" data-name="Path 8" class="cls-2" d="M11.069,2A6.064,6.064,0,0,0,5,8.069c0,4.552,6.069,11.271,6.069,11.271s6.069-6.719,6.069-11.271A6.064,6.064,0,0,0,11.069,2Zm0,8.236a2.167,2.167,0,1,1,2.167-2.167A2.168,2.168,0,0,1,11.069,10.236Z" transform="translate(-5 -2)"/>
      </g>
      <path id="Path_9" data-name="Path 9" class="cls-3" d="M0,0H20.807V20.807H0Z"/>
      <path id="Path_363" data-name="Path 363" class="cls-2" d="M13.419,9.811H9.811v3.608h-1.2V9.811H5v-1.2H8.608V5h1.2V8.608h3.608Z" transform="translate(13.612 1.475)"/>
    </g>
  </g>
</svg>
