<?xml version="1.0" standalone="no"?>
<!DOCTYPE svg PUBLIC "-//W3C//DTD SVG 20010904//EN"
 "http://www.w3.org/TR/2001/REC-SVG-20010904/DTD/svg10.dtd">
<svg version="1.0" xmlns="http://www.w3.org/2000/svg"
 width="210.000000pt" height="210.000000pt" viewBox="0 0 210.000000 210.000000"
 preserveAspectRatio="xMidYMid meet">
<metadata>
Created by potrace 1.11, written by Peter Selinger 2001-2013
</metadata>
<g transform="translate(0.000000,210.000000) scale(0.100000,-0.100000)"
fill="#000000" stroke="none">
<path d="M1069 1996 c-2 -2 -42 -6 -89 -10 -162 -11 -296 -57 -442 -152 -68
-43 -186 -154 -233 -217 -11 -15 -26 -34 -32 -42 -7 -7 -13 -16 -13 -19 0 -3
-14 -28 -31 -56 -17 -28 -32 -56 -33 -63 -1 -6 -10 -30 -20 -52 -15 -35 -33
-94 -52 -177 -3 -13 -7 -81 -9 -153 -2 -110 1 -145 21 -230 23 -91 106 -284
137 -318 7 -7 25 -29 40 -50 65 -87 166 -173 277 -238 78 -45 225 -100 305
-114 50 -9 315 -12 315 -4 0 3 6 6 13 6 32 0 130 29 207 61 350 146 581 487
582 862 1 204 -44 361 -155 533 -58 89 -155 192 -232 245 -22 15 -41 30 -43
35 -2 4 -8 7 -12 7 -5 0 -31 13 -57 28 -92 54 -235 98 -353 108 -41 3 -78 8
-81 10 -3 2 -8 2 -10 0z m146 -181 c84 -20 108 -27 174 -57 210 -94 378 -294
438 -521 21 -83 25 -279 7 -360 -51 -220 -201 -423 -382 -518 -26 -13 -49 -27
-52 -30 -8 -9 -162 -56 -210 -65 -60 -10 -176 -12 -225 -3 -22 4 -53 9 -70 12
-165 27 -372 163 -476 313 -93 136 -146 304 -143 459 1 103 9 153 40 245 86
264 313 464 594 524 66 14 246 15 305 1z"/>
<path d="M860 1492 c-8 -3 -18 -10 -22 -16 -4 -6 -8 -200 -8 -431 0 -437 1
-445 41 -445 15 0 212 153 271 209 9 9 31 27 49 41 105 79 219 183 219 199 0
10 -14 29 -32 42 -17 13 -41 33 -52 44 -12 11 -41 36 -66 55 -44 34 -81 65
-104 85 -55 49 -245 204 -261 212 -11 6 -27 8 -35 5z"/>
</g>
</svg>
